# xmcd
#
# Track frame offsets: 
#        150
#        16575
#        37250
#        51000
#        62550
#        87450
#        105300
#        122425
#        139675
#        154625
#        175375
#        191225
#        211850
#        228525
#
# Disc length: 3224 seconds
#
# Revision: 4
# Processed by: cddbd v1.5.2PL0 Copyright (c) Steve Scherf et al.
# Submitted via: ExactAudioCopyFreeDBPlugin 1.0
#
DISCID=b60c960e
DTITLE=Ostbahn Kurti and die Chefpartie - Liagn and Lochn
DYEAR=1989
DGENRE=Austrorock
TTITLE0=Voll Do
TTITLE1=Da Joker
TTITLE2=Arbeit
TTITLE3=(Heit Loss I) Anschreibm
TTITLE4=Pudel
TTITLE5=Romeo, Romeo
TTITLE6=Liagn and Lochn
TTITLE7=A Schritt Vire (Zwa Schritt Zruck)
TTITLE8=Kumm Ham
TTITLE9=Des Wetter Wird Umschlogn
TTITLE10=Da Brade Weg
TTITLE11=Haasses Pflosta
TTITLE12=Unter Null
TTITLE13=Bleib Allaa
EXTD=
EXTT0=
EXTT1=
EXTT2=
EXTT3=
EXTT4=
EXTT5=
EXTT6=
EXTT7=
EXTT8=
EXTT9=
EXTT10=
EXTT11=
EXTT12=
EXTT13=
PLAYORDER=
